/* XPM */
static char *_6c902e4dfbd4dd4e3ae2e2d3afee09aAfewYpI0tXG9u9sM[] = {
/* columns rows colors chars-per-pixel */
"60 60 239 2 ",
"   c None",
".  c #020204",
"X  c #0B0202",
"o  c #01020C",
"O  c #0A010C",
"+  c #01090C",
"@  c #0C0A00",
"#  c #130201",
"$  c #190306",
"%  c #010314",
"&  c #0B0013",
"*  c #010913",
"=  c #02021C",
"-  c #0B001C",
";  c #000A1B",
":  c #0A0911",
">  c #12011B",
",  c #130113",
"<  c #020123",
"1  c #0B0022",
"2  c #010822",
"3  c #02012A",
"4  c #0B012B",
"5  c #000C29",
"6  c #120024",
"7  c #10002C",
"8  c #170725",
"9  c #070036",
"0  c #130035",
"q  c #0D1331",
"w  c #391231",
"e  c #5B2714",
"r  c #6A280A",
"t  c #652A16",
"y  c #722A0B",
"u  c #542B39",
"i  c #51292D",
"p  c #642D25",
"a  c #1B1559",
"s  c #1D1749",
"d  c #251748",
"f  c #271658",
"g  c #2A0D59",
"h  c #26214D",
"j  c #1D1666",
"k  c #1C0B77",
"l  c #1C1478",
"z  c #190C68",
"x  c #270C6A",
"c  c #2C1363",
"v  c #23136C",
"b  c #281767",
"n  c #240C73",
"m  c #2C0B74",
"M  c #2A0A7A",
"N  c #340B78",
"B  c #2B1273",
"V  c #25147C",
"C  c #2A117B",
"Z  c #340F65",
"A  c #352F71",
"S  c #4B2F4E",
"D  c #693275",
"F  c #93330B",
"G  c #AC3B04",
"H  c #AE3E10",
"J  c #963E28",
"K  c #AB410F",
"L  c #904333",
"P  c #AB542D",
"I  c #884841",
"U  c #936977",
"Y  c #C26753",
"T  c #F1E537",
"R  c #EAE162",
"E  c #EDDF5F",
"W  c #171A83",
"Q  c #2D0B83",
"!  c #330B81",
"~  c #261381",
"^  c #1C2E8C",
"/  c #24338C",
"(  c #2A2B98",
")  c #2A3599",
"_  c #302F8A",
"`  c #1936AA",
"'  c #0F32AB",
"]  c #2930A2",
"[  c #5A349D",
"{  c #563898",
"}  c #4F3A8B",
"|  c #683795",
" . c #5B2EAB",
".. c #5C35A4",
"X. c #5C34AB",
"o. c #5736A6",
"O. c #5C2DB3",
"+. c #5D2CBB",
"@. c #572AB4",
"#. c #4E38B5",
"$. c #5434B4",
"%. c #5C34B4",
"&. c #5D33BC",
"*. c #573AB5",
"=. c #4D36AC",
"-. c #642BAD",
";. c #622AAA",
":. c #6333AD",
">. c #6337A7",
",. c #642DB5",
"<. c #632CBA",
"1. c #682AB6",
"2. c #6334B4",
"3. c #6333BB",
"4. c #6935B9",
"5. c #7134BF",
"6. c #3757B4",
"7. c #574295",
"8. c #54538B",
"9. c #7C5998",
"0. c #765487",
"q. c #7A729C",
"w. c #787899",
"e. c #727090",
"r. c #4555A9",
"t. c #4C4CAD",
"y. c #7D55AC",
"u. c #7A58A7",
"i. c #7B56B6",
"p. c #7848AF",
"a. c #7971AA",
"s. c #5D30C0",
"d. c #6331C1",
"f. c #6835C3",
"g. c #692FC1",
"h. c #305DD1",
"j. c #2561DE",
"k. c #2360DF",
"l. c #7E4BC5",
"z. c #7E54C3",
"x. c #886C91",
"c. c #907183",
"v. c #864EAD",
"b. c #8353AC",
"n. c #8657A6",
"m. c #844DB4",
"M. c #834BBD",
"N. c #8B4BBC",
"B. c #8B47BA",
"V. c #9247BD",
"C. c #8353B4",
"Z. c #8353BC",
"A. c #8C53BB",
"S. c #8A55B3",
"D. c #9055BF",
"F. c #8545C4",
"G. c #8C45C4",
"H. c #844BC5",
"J. c #8C4BC4",
"K. c #8446C9",
"L. c #8B46CB",
"P. c #844CCB",
"I. c #8B4CCB",
"U. c #934BC4",
"Y. c #944BCA",
"T. c #9446C6",
"R. c #8451CA",
"E. c #8952C6",
"W. c #9353C8",
"Q. c #8D4BD2",
"!. c #844BD5",
"~. c #9249D4",
"^. c #8853D2",
"/. c #B16ADD",
"(. c #AD74DB",
"). c #A978D9",
"_. c #B475DA",
"`. c #A972D5",
"'. c #AB6BE7",
"]. c #B46CE3",
"[. c #BA6CE4",
"{. c #B464EC",
"}. c #B46CEC",
"|. c #BB6CEC",
" X c #BA66E8",
".X c #AC74E6",
"XX c #B372ED",
"oX c #BA73ED",
"OX c #B476E4",
"+X c #AE6AF8",
"@X c #BC66F3",
"#X c #B46CF3",
"$X c #BC6CF3",
"%X c #B36CFB",
"&X c #BB6BFC",
"*X c #B865F8",
"=X c #AC72F5",
"-X c #B273F4",
";X c #BB73F3",
":X c #BA72FB",
">X c #B473F9",
",X c #9E5EE5",
"<X c #C169EE",
"1X c #C26CF4",
"2X c #C26BFB",
"3X c #C271F6",
"4X c #7999BA",
"5X c #7F8EAB",
"6X c #7B9AC4",
"7X c #7096D7",
"8X c #8797BA",
"9X c #BBB8BF",
"0X c #D0BBBA",
"qX c #8698C7",
"wX c #BDBCC9",
"eX c #BBB8C9",
"rX c #BDB9D2",
"tX c #9FACD5",
"yX c #C3BBCB",
"uX c #C8BBCD",
"iX c #C5BAD4",
"pX c #D7BAED",
"aX c #DEABFF",
"sX c #D9A9FB",
"dX c #DCB3FC",
"fX c #D8B6F7",
"gX c #CAB9F4",
"hX c #E2ABFF",
"jX c #E8A7FE",
"kX c #E3B3FD",
"lX c #E4B9FA",
"zX c #EAAEF6",
"xX c #B7C5CB",
"cX c #FFECFF",
"vX c #FEF3FF",
"bX c #FCFBFE",
"nX c #F5FBFA",
"mX c #ECFEFB",
"MX c #C5C3C8",
/* pixels */
"                                                                                                                        ",
"                                                                                                                        ",
"                                                                                                                        ",
"                                                                                                                        ",
"                                                                                                                        ",
"                                                                                                                        ",
"                                                                                                                        ",
"                                                                                                                        ",
"                                    5 % = & % % % % ; * + * % ;                                                         ",
"                                    3 1 - - 6 - - 4 < 1 1 = < = % =                                                     ",
"                        < ; * o o = } { Z.C.).).`.`.N.N.;.o.b a b s = o = <                                             ",
"                        3 < & & - 4 | -.I.K.-X'.-X-X~.~.1.,.M B m Z 4 - = 4                                             ",
"                    < 3 7.{ i.i.o.o.H.J.$X$XI.P. .3.O.1.Q.J.XX'.XX'..X).u.9.4 % * ;                                     ",
"                    = < { 3.P.P.@.d.K.G.$X{.Q.^.%.%.4.-.G.V.|.;X#X>X%X>XE.y.7 = % %                                     ",
"                    * = i.H.B.J.4.O.>X$X$X3X-.<.3.,.-X;X;X|.L.K.,.1.+.+.2.X.x g f d - % % <                             ",
"                    o & C.W.B.N.-.5.#X$X$X%X<.f.g.-.}. X|.}.Q.!.&.s.&.d.<.,.N N Z g 7 - = %                             ",
"                    % - b.J.U.G.Q.L.|.1X{.>Xd.s.%X&X$X|.T.U.-.3.s.@.^.K.%X#X}..Xm.Z...[ b d = =                         ",
"                    % - C.F.I.Q.Q.Q.|.|.$X+X3.3.%X2X@X1XT.B.4.&.&.2.i.N.}.$X|.oXY.I.4.O.m c 1 -                         ",
"                    + % 7.%.3.d.+.,.J.G.&X&XF.J.[.|.|.}.I.R.@.+.=X.XkXaXhXjX'.#X}.}.%X=XP.i.c d < <                     ",
"                    ; = } o.$.$.&.&.P.I.%X+XU.B.[.<X$X#XP.P.+.g.#XoXhXfXlXkX(.;X;X#X3X$XL.H.m f < 2                     ",
"                        2 < b ~ #.#.%. .4.5.F.Y.$X$X{.>X,.4.+X+X&X$XjXlXcXcXfXhX|.@X X XG.^.%.{ 4 %                     ",
"                        o * s j t.=.*.%. .O.P.L.$X$X$X#X-.1.&X&X2X$XjXhXcXvXpXhX|.2X<X<XU.K.3.o.4 <                     ",
"                        = % - 4 b M M M n C 3.1.K.G.;X$XJ.Y.{.$X{.$X}.OXdXfXdXhX#X*X$X[.B.H.d.%.c d = <                 ",
"                        9 < - 6 c N N N m n %.3.^.H.;X}.J.G.1X$X|.}.#XXXaXkXhXjX&X*X$X}.N.H.d.&.m f 1 =                 ",
"                    < 3   >.b.b..X.XB.M.2.%.Q Q &.O.I.I.F.I.$X$X|.].;X}.oX].[.|.&X&X}.oXJ.P.3.&.%.{ 1 %                 ",
"                    < 0 >.-.m.m..XoXV.V.,.O.N ! $.%.l.H.P.K.;X$X|.|.#X#X$X|.1X@X*X3X}.].J.H.O.&.+...- *                 ",
"                ; = u.M.XX;XaXkXaXjX[.|.}.-XH.z.N N :.:.R.H.V.V.@X&X&X&X}. X1X1X2X$XT.T.J.^.%.3.!.H.= o                 ",
"                < 4 A.Y.]._.sXfXkXhXoX$X|.oXF.H.N N ..X.R.E.B.U.$X&X*X&X;XoX$X{.@X$XU.U.H.l.O.+.!.Z.= *                 ",
"            5 <   >.'. XjXzXcXcXdXaX#X&X|.$XI.I.R.l.! Q O.2.V.V.T.~.~.L.J.F.K.Q.L.Y.J.B.2.3.+.f.H.u.% *                 ",
"            * < ..-.:X[.jXzXvXvXkXsX:X:X{.|.Y.F.F.R.N Q %.,.G.U.G.W.m.m.S.y.y.Z.A.p.W.H.2.+.s. .S.0.8 ;                 ",
"            % - C.I.}.oXhXfXfXdXOX$X{.#XY.Y.N.J.W.M.m k $.4.K.I.E.p.8 , > 6 - - 1 0 { X.O.+.f.>.6 , o %                 ",
"            % - C.G.$X}.hXdXgXfX(.].XX-XH.J.J.U.B.J.m C *.$.!.P.M.n.O # X # # X X = 8.{ o.[ | D , X = <                 ",
"            % 1 ).$X@X1XJ.Z.b f 6 7 c n X.:.L.T.V.W.:.X.C Q @.3.J.n.& X E T T R X & & = 1 $ Y Y $ o 8X                  ",
"            % < OX{.3X XJ.E.f d & % d b } >.L.~.I.l.:.X.C C $.3.K.C.1 @ E T T R # O . . . # Y Y # * 8X                  ",
"            % 1 (.1X X[.N c < % O & O % < 9 2.<.%.*.3.%.m n X.-.=X.Xx d # # @ X @ . + . . X $ # O % + %                 ",
"            % - _.$X1X/.Z d % : . O . . o 4 } %.$.$.&.X.n B X.:.=X.XC x 4 > O , . + . . . . o * & & . *                 ",
"            * > v.G.#X.X7 & + . yXwXbXbXeXeX< 9 X.<.%...B v C M P.E.m m OX_.v.9.> . & & o % h q % o w.e.= <             ",
"            * - A.Q.-X.X1 . . . wXyXvXnXxXxXo < ..,.%.o.v v V Q ^.l.m m }.$XT.v.6 - - - & < c f - o q.e.* ;             ",
"            * - ..<.i.u.- O wXwXvXbXbXbXmXmXeXgXx C #.#.V l ( ( %.2.B n =X#X{.1X]._.aXfXpXfX..[ = o q.q.* *             ",
"            ; <   X.z.u.1 O wXwXvXvXbXnXmXnXeXiXf j #.#.~ l ] ] #.o.x B .X=X:X@X$X|.jXhXdXdX2...< & q.q.o o             ",
"                3 9 o.{ - O vXbXbXbXnXbXeXuXvXvX% 3 o.*.V V ( ( V x B m %.O.-X#X@X<X[.[.].'.2.[ < % q.w.. .             ",
"                ; <   7.% . vXvXbXnXbXnXyXuXvXbXX 1 { o.g a ) ` W k n C =.3.=X>X&X$X]./.1X:XX.{ 3 = w.  * %             ",
"                    3 = O O eXiXbXbXnXbX. . uXyX. - b c u S 6.j.h.h.] ( W k 3.<.Q.L.W.U.T.F.! v a.e.% ;                 ",
"                    = o o o iXiXbXbXbXbXo & iXiX- 1 d w t p 8.r.r.r._ A j v =.3.l.R.Z.C.D.C.Z f a.w.= ;                 ",
"                        . + e.e.wXMXwXeXw.e.o % f d u t F F L L I I i u uXrXb n B n B g 4 6 - = < <                     ",
"                        ; ; w.w.wX9XyXrXq.q.= < j b S p J H G G G K y e 0XeXa b f g f d < % = % = <                     ",
"                            < % o : o & = = s a / ^ 6.8.p F H G G G H L c.a.a.a.u u O ; 5X8X4X                          ",
"                            ; % < < 4 1 - < f j ^ ` k.h.A i I L L L K J U x.x.x.u u X o 8X4X6X                          ",
"                            = = { [ i.y.y.u.g v ) ' j.k.h.6.r.r.r.8.p y t p t u A A = . o * o =                         ",
"                          qX< 3 >.4.K.J.J.M.N x ( ' j.j.k.k.j.h.6.8.i r y r p S _ / 3 6 - = 1 = 8X4X                    ",
"                        = = 9.A.#X&X&X*X$X|.I.z.k W ` ' ' ' ' / S e t r r p S A l V i.C.b.S.[ 7.= + + %                 ",
"                      8X- 6 S.T.|.$X$X$X<X|.Y.J.N B _ / / ^ ) A i t t e t i A ) n m l.I.T.Y.,...7 - - < qX              ",
"                    < < `.(.$X|.hXdXhXhXjXjX|.|.N.y.9 < = < = % # # # # # # f z z.E.}.3X<X X;X'.A.m.[ } < <             ",
"                    4 0 .X;X|./.fXpXfXlXaXjX|.|.V.b.- . o * o * * * o O & 1 c m M.F.$X$X<X1X|.;XT.Q.4.[ 1 =             ",
"                < - n.A.}.}.jXkXcXcXpXsXOXoXL.Q.4.[ - o 8X6XqX6X4X4X% = 7.[ z.E.:X#X>X%X2X2X$X{.;X}.H.i.< 2             ",
"                = - C.J.#X;XhXkXcXvXfXaXXX.XZ.i.[ } 1 = qX          5 3 { ..C.m.(.(..X).(._./.OX_.).y.u.3 <             ",
"                = 3 ..4.K.E..X.X(.(.A.M.4...0 - 1 = qX                  < 1 4 1 > > - & & & 1 6 1 6 - <                 ",
"                3 9   [ C.b.).)._._.v.C.[ } 4 % o 5                     2 % % = & & o + + + = < = % % <                 ",
"                    3 - 6 > - > , & > 6 1 3                                         8X8X                                ",
"                7X6X% . X $ # $ # X X X & <                                                                             "
};
