/* XPM */
static char *b9128d30395b4899cd709a3d9eafdeeeYrjKAzDI4ogA1GTr[] = {
/* columns rows colors chars-per-pixel */
"60 60 250 2 ",
"   c None",
".  c #02050A",
"X  c #020314",
"o  c #04041A",
"O  c #180018",
"+  c #00121E",
"@  c #22001E",
"#  c #030224",
"$  c #030728",
"%  c #18012B",
"&  c #021726",
"*  c #02013A",
"=  c #070637",
"-  c #180238",
";  c #041838",
":  c #1A1935",
">  c #1D182F",
",  c #25012E",
"<  c #240335",
"1  c #330035",
"2  c #311030",
"3  c #04253C",
"4  c #17233A",
"5  c #182026",
"6  c #2B223B",
"7  c #57003B",
"8  c #630A3C",
"9  c #1A0647",
"0  c #021B48",
"q  c #151A4B",
"w  c #001D54",
"e  c #041C5D",
"r  c #130650",
"t  c #260247",
"y  c #370347",
"u  c #25164A",
"i  c #290256",
"p  c #340F4F",
"a  c #052846",
"s  c #182848",
"d  c #06384A",
"f  c #18344A",
"g  c #00235D",
"h  c #032958",
"j  c #1A2854",
"k  c #023353",
"l  c #013C5A",
"z  c #073957",
"x  c #123552",
"c  c #183754",
"v  c #252A49",
"b  c #29324C",
"n  c #233756",
"m  c #302A51",
"M  c #031A67",
"N  c #300F6C",
"B  c #002C62",
"V  c #002866",
"C  c #003A67",
"Z  c #113468",
"A  c #2E326F",
"S  c #47034D",
"D  c #570046",
"F  c #47025B",
"G  c #590556",
"H  c #5F1442",
"J  c #660648",
"K  c #76014C",
"L  c #6A055A",
"P  c #6E1054",
"I  c #542A54",
"U  c #460166",
"Y  c #570167",
"T  c #590078",
"R  c #501C7D",
"E  c #770464",
"W  c #7B0473",
"Q  c #6B0069",
"!  c #743669",
"~  c #05445B",
"^  c #0E4556",
"/  c #044867",
"(  c #014D75",
")  c #084977",
"_  c #035577",
"`  c #13587A",
"'  c #0A546F",
"]  c #245C74",
"[  c #395479",
"{  c #31487C",
"}  c #2B6778",
"|  c #1B607D",
" . c #4B4648",
".. c #564F6C",
"X. c #65496D",
"o. c #6E6E70",
"O. c #800058",
"+. c #860079",
"@. c #8E0D6F",
"#. c #922D7B",
"$. c #942464",
"%. c #8A426F",
"&. c #113485",
"*. c #272F84",
"=. c #481688",
"-. c #531985",
";. c #540C88",
":. c #4D3998",
">. c #4D338E",
",. c #73398D",
"<. c #02488B",
"1. c #015488",
"2. c #145A86",
"3. c #004C9D",
"4. c #024893",
"5. c #0A5494",
"6. c #1E488A",
"7. c #394A87",
"8. c #365B88",
"9. c #394C98",
"0. c #365796",
"q. c #294D8A",
"w. c #13628A",
"e. c #086699",
"r. c #156797",
"t. c #197296",
"y. c #2A7599",
"u. c #39799C",
"i. c #306591",
"p. c #055BA9",
"a. c #055BB8",
"s. c #2D4FA8",
"d. c #0D67A2",
"f. c #186BBA",
"g. c #1679B5",
"h. c #1370AC",
"j. c #2978A5",
"k. c #3674A4",
"l. c #2A7DB4",
"z. c #3063A7",
"x. c #435599",
"c. c #42518E",
"v. c #476E93",
"b. c #4955A4",
"n. c #5372B0",
"m. c #6A7190",
"M. c #0967C4",
"N. c #1867C4",
"B. c #1975CA",
"V. c #0A6CD3",
"C. c #136ED7",
"Z. c #0A72DD",
"A. c #0976DA",
"S. c #1472D5",
"D. c #1574D8",
"F. c #0274EC",
"G. c #0877E8",
"H. c #1379E5",
"J. c #0275F4",
"K. c #047AF4",
"L. c #0A7AF3",
"P. c #0375FC",
"I. c #0379FD",
"U. c #0A78FC",
"Y. c #0A70F0",
"T. c #4968C3",
"R. c #890082",
"E. c #950087",
"W. c #893080",
"Q. c #DB6CB5",
"!. c #D876BA",
"~. c #E373B7",
"^. c #B87DC1",
"/. c #35819C",
"(. c #3286AF",
"). c #1984A8",
"_. c #4688AA",
"`. c #4E9AB7",
"'. c #4C8BB8",
"]. c #668DA2",
"[. c #3A9CC9",
"{. c #3592CB",
"}. c #3EA8D8",
"|. c #3AA1CE",
" X c #0581F7",
".X c #3CABE6",
"XX c #3BB5EC",
"oX c #39B6E8",
"OX c #39ACF4",
"+X c #3DB4F4",
"@X c #3EBBF4",
"#X c #35B5FD",
"$X c #3CBCFB",
"%X c #37B6F5",
"&X c #2FB3F4",
"*X c #1D93D0",
"=X c #449BC6",
"-X c #589AC7",
";X c #4B97D7",
":X c #579ED3",
">X c #4283C3",
",X c #649CDA",
"<X c #6496C9",
"1X c #47A7C9",
"2X c #54A5CA",
"3X c #45ADDD",
"4X c #48A9D7",
"5X c #59A9D8",
"6X c #46B2DC",
"7X c #59B2DE",
"8X c #64A7DA",
"9X c #76AED3",
"0X c #569FE1",
"qX c #49ACE7",
"wX c #57ACE8",
"eX c #43B3EC",
"rX c #48B5E7",
"tX c #55B3E7",
"yX c #49AFF2",
"uX c #44B3F4",
"iX c #4DB5F2",
"pX c #40B6FB",
"aX c #47B8F7",
"sX c #51B3F2",
"dX c #53A7F0",
"fX c #65A5E6",
"gX c #65BBE8",
"hX c #66B3FF",
"jX c #3FC0F9",
"kX c #40C0FF",
"lX c #6EC8F0",
"zX c #7EC4DD",
"xX c #BBB9BB",
"cX c #82949C",
"vX c #B984C7",
"bX c #BC86D1",
"nX c #82BEE0",
"mX c #C185CF",
"MX c #8ED1F0",
"NX c #A6D6EB",
"BX c #9DE3FF",
"VX c #ACE6FF",
"CX c #9CC9DC",
"ZX c #C9F3FF",
"AX c #D8FAFD",
"SX c #CFEBF9",
"DX c #EAFCFF",
"FX c #E6F9FD",
"GX c #F3FAF9",
"HX c #F2EFFA",
/* pixels */
"                                                  @             O                                                       ",
"                                                X.O G         Y O ..,.                                                  ",
"                                            i = $ X - p     U - X X * i                                                 ",
"                                          < j x 3 $ a ; # % q s X 4 n j i                                               ",
"                                        y o s c x a k d s a a d a f d x $ t                                             ",
"                                      U - & d d z z l ~ d ~ ~ ~ z z ^ d 3 = F                                           ",
"                                    i q x z ~ ~ ^ k / _ ' ' ( ( l / ~ z ^ x s 9                                         ",
"                                  F j k / ~ / y.u.; y.2X1X1X2Xj.; /.y./ l ~ d j y                                       ",
"                                  - j ~ l _ h.|.=Xy.` k.rXrXy.` t.[.[.j./ l ~ x -                                       ",
"                                F = x ~ ' t.[.lXlXnXv.8.j.j.} v.zXlXgX4Xy./ / z = F                                     ",
"                              Q # & f z 2.7X5XBXAXDXAXcXX & cXFXFXAXBX8X5Xt.l k $ = F                                   ",
"                              F A } & k t.gXBXZXFXGXo.o.xXxXo.o.GXDXAXVXgXt.k 3 i.A F                                   ",
"                              Y 8.`.` k e.7XZXFXDXGX .o.GXHXo. .GXGXDXZXgXw.l ' '.x.F                                   ",
"                              U 7.5X5X1.e.gXVXDXDXDXo.m.SXSX].o.GXDXAXVXgXe._ 2X8Xx.U                                   ",
"                              U c.fX3XqX.XtX9XNXFXFXZXNX9X9XCXSXFXAXBXtX3X}.}.tX5Xx.;.                                  ",
"                                  9.5Xt.j.:X` 9XZXCXMX`.( ( `.MXMXMXlX6X6X).r.5X0.>.                                    ",
"                                  ;.m.a x v./ _.<Xv.-X(.( / ).rXqXiXeX6X/.d a v.-.                                      ",
"                                    # o $ 0 _.` $ ; l.wXwX4XrXeXuXuXeX[.a + X #                                         ",
"                            U U i t X X B <.C w._./.4XwXwXqXiXeXiXqXl.C 5.h $ o 9 i N Y                                 ",
"                            :.7.7.c $ h 3.B.4.1.2.w.r.e.d.d.d.e.e.e.5.4.M.3.e = Z { q.>.                                ",
"                        =.9.fXwX-Xk.g p.D.Z.S.3.V B V M g w g g g V 3.D.G.H.a.M z.:XwX0Xx.                              ",
"                      U b.4XaXeXr.B N.H.L.K.G.V.f.f.N.N.f.h.f.f.f.M.Z.F.F.F.H.N.V w.uXeX:Xb.U                           ",
"                      i n.rXpXuX2.w S.F.I.J.U.L.H.Z.Y.Y.H.A.G.F.G.L.J.K. XG.G.D.h ` XX&XeXn.t                           ",
"                      9 k.rXpXeX` h D.P.I.I.I.K.L.F.U.P.J.K.I.I.I.P.I.I.F.G.L.S.h ` eX$XoXj.-                           ",
"                      9 k.4X.XiX` h C.P.P.I.P.J.G.L.I.I.I.I.P.P.K.I.I.P.P.J.K.S.B ) eX@X}.k.r                           ",
"                    N n.) e.eXqX` h C.U.P.J.P.U.K.K.F. XI.P.U.J.K.K.U.U.P.J.U.C.g ` eX+Xd.2.n.R                         ",
"                  >.z.wXg.g.kXeXw.V V.F.L.K.F.U.P.I.I. XF.G.L.J.I.J.F. XJ.P.L.D.B 2.aXpXg.h.tXz.>.                      ",
"                o 8.wX.XaX+X%XuXr.C p.A.Z.H.M.V.U.F.L.A.a.a.V.G.J.L.M.a.G.L.Z.p.C r.OXpXaXuXXXqXb.*                     ",
"                X ] rX$X$X#X#XuXfXk.w 5.B.f.V <.D.H.S.3.w 0 <.B.Z.S.5.M M.C.p.w j.4XaX&X+X@X%XrXi.#                     ",
"                . ] 3XkX#X#X+XsXk.h * 9.s.M = ; <.B.4.<.j.j.1.<.B.4.w * &.s.q.* B j.rXXXXX%X$X.X| +                     ",
"                X ] tXOX#XaX3Xj.x =   =.-.N = a ) 1.<.h.sXiXg.( 1.) 0 =   =.-.  = h j.3XrX@X#XiX} .                     ",
"                % { 0XaXpX.X4Xl ; q   T     < [ _.h l.sXyX.X3X(.a u...-         u ; k [.rXuX+X0X7.%                     ",
"                    &.qXXX@X.X{.{.x.p       t [ 5X*XOXaX=X( g.}.{.4X8.t       t x.(.[..XeXiXqX6.                        ",
"                    N 8X.XoX+XuXyX>X* F     t 8.3X$X#X+X=Xa e.iXXXqXi.r       * '.qXuXXXuXyX5XN                         ",
"                    ;.n.3XoX%X%XOX|.B j -.  * i.tXpX$XXX4X_ g.+X+XtXi.=     q k (.@X$X%XOXdXn.-.                        ",
"                      N z.tXiXuX+XuX4X8Xc.* = [ ,X,XfX8X9X<X,XfXfX<Xc.# r x.-X4XoX$XXXyXhXT.i                           ",
"                          *.&.;XiXXX@XuX;X0.= X.vXbX^.^.vX^.mXbXbXvXX.# 8.=XeX%X$XeX5X6.A -.                            ",
"                              9.{.XX&XpXrX-Xu ! !.Q.~.~.~.Q.Q.Q.Q.!.%.> '.3X@X$X&X{.0.                                  ",
"                              i r.6XiXqX=Xn.p W.                    #.y n.2X3XeXiXz.r                                   ",
"                              Y 9.8X:X6.e N   W @.  $.7 7 D 7 P   @.W   N e 6.fXfXb.U                                   ",
"                                  >.:.        R.K   8 7     D J   K +.        :.:.                                      ",
"                                  T T         R.J   H L     E J   K +.        T T                                       ",
"                                              E.K   H Q     E 8   K R.                                                  ",
"                                              +.K   P W       8   K +.                                                  ",
"                                              @.$.  J Q       J   O.E.                                                  ",
"                                            L #.    E         P   O.+.                                                  ",
"                                            7     J           D   E                                                     ",
"                                            D     1           G   L                                                     ",
"                                            D I   1           S   G                                                     ",
"                                            y 6 6 ,           1 I 1                                                     ",
"                                            y > > <           , m <                                                     ",
"                                            p 4 6 <           , m -                                                     ",
"                                          y m v p S           % b -                                                     ",
"                                          % v : S             % n -                                                     ",
"                                          % v - F             - v -                                                     ",
"                                          - s u Y             - b : Y                                                   ",
"                                    y - = n n 9 Y             % b f u - t                                               ",
"                                    p s s c c u               % b f f j u F                                             ",
"                                  , > 5 : : : %               O > : ; 4 > ,                                             ",
"                                  % . . X o X o               O X X X . X O                                             "
};
