/* XPM */
static char *player_removebg_preview1701968145[] = {
/* columns rows colors chars-per-pixel */
"60 60 252 2 ",
"   c None",
".  c #020201",
"X  c #0B0000",
"o  c #000B03",
"O  c #000C0B",
"+  c #05010B",
"@  c #150000",
"#  c #1B0000",
"$  c #12000D",
"%  c #001509",
"&  c #01011B",
"*  c #030214",
"=  c #0B0D16",
"-  c #240000",
";  c #2B0000",
":  c #380000",
">  c #3C1610",
",  c #00012C",
"<  c #020424",
"1  c #010035",
"2  c #0E0E2E",
"3  c #0B333B",
"4  c #32393D",
"5  c #36182B",
"6  c #5A0B07",
"7  c #591208",
"8  c #4A1815",
"9  c #541614",
"0  c #4E0D12",
"q  c #690704",
"w  c #760A04",
"e  c #651010",
"r  c #4A122C",
"t  c #650F25",
"y  c #513A3C",
"u  c #743537",
"i  c #57261D",
"p  c #374A3D",
"a  c #2B4A3B",
"s  c #4B403B",
"d  c #51433A",
"f  c #624439",
"g  c #000048",
"h  c #0D144D",
"j  c #351447",
"k  c #2B1559",
"l  c #2E1256",
"z  c #022854",
"x  c #171867",
"c  c #091C7B",
"v  c #181579",
"b  c #131073",
"n  c #251768",
"m  c #241877",
"M  c #2B0F6C",
"N  c #00267B",
"B  c #12247A",
"V  c #122164",
"C  c #282268",
"Z  c #4C0C4A",
"A  c #4D374B",
"S  c #5E3172",
"D  c #195049",
"F  c #3B5956",
"G  c #315349",
"H  c #33635B",
"J  c #137C6B",
"K  c #2C7B69",
"L  c #2D7C74",
"P  c #357874",
"I  c #347268",
"U  c #554944",
"Y  c #49554B",
"T  c #4F4D50",
"R  c #6F514F",
"E  c #496755",
"W  c #684473",
"Q  c #57677A",
"!  c #706A70",
"~  c #7E615B",
"^  c #9A1B19",
"/  c #8F0000",
"(  c #A61916",
")  c #B51613",
"_  c #B3100B",
"`  c #982218",
"'  c #8D241A",
"]  c #AA2216",
"[  c #A81827",
"{  c #962324",
"}  c #8A2526",
"|  c #A8232E",
" . c #C40C0E",
".. c #C61015",
"X. c #A95A3B",
"o. c #B25239",
"O. c #B0633D",
"+. c #9F5A3D",
"@. c #965551",
"#. c #AB5B44",
"$. c #B45948",
"%. c #A95B52",
"&. c #97694E",
"*. c #AA6346",
"=. c #A76755",
"-. c #B77058",
";. c #8F5D72",
":. c #906570",
">. c #AD7574",
",. c #A85B6F",
"<. c #C37F7E",
"1. c #0B8B75",
"2. c #278478",
"3. c #34827B",
"4. c #2F806F",
"5. c #93877B",
"6. c #B48279",
"7. c #C5886E",
"8. c #150E87",
"9. c #0B1988",
"0. c #141384",
"q. c #1B1583",
"w. c #14158B",
"e. c #1B1A8B",
"r. c #151987",
"t. c #160E95",
"y. c #0C1797",
"u. c #151292",
"i. c #171797",
"p. c #0C0F93",
"a. c #271889",
"s. c #231896",
"d. c #2D0E92",
"f. c #012787",
"g. c #2A268B",
"h. c #1618A3",
"j. c #0E12A1",
"k. c #4F3492",
"l. c #673C94",
"z. c #4C3CB6",
"x. c #364EB6",
"c. c #2C6A9A",
"v. c #594799",
"b. c #4D4E8D",
"n. c #7D6194",
"m. c #5444A6",
"M. c #4945BB",
"N. c #5644B6",
"B. c #4B4EAE",
"V. c #6D50A5",
"C. c #756DB9",
"Z. c #60558F",
"A. c #3E3CD7",
"S. c #3F3CE3",
"D. c #443ED9",
"F. c #463EC4",
"G. c #443DE2",
"H. c #3946CA",
"J. c #3954C9",
"K. c #3A45D6",
"L. c #3C52D1",
"P. c #3E55D4",
"I. c #4845C8",
"U. c #5444C6",
"Y. c #4444D3",
"T. c #4542DB",
"R. c #4848D8",
"E. c #5050D3",
"W. c #5B6CD8",
"Q. c #5475D1",
"!. c #766AC9",
"~. c #676AD9",
"^. c #6773D6",
"/. c #766ED5",
"(. c #4646E5",
"). c #5057E9",
"_. c #5D6CE5",
"`. c #6A6CE4",
"'. c #6869EA",
"]. c #6973E7",
"[. c #686CF4",
"{. c #7271EE",
"}. c #675ADA",
"|. c #905C8B",
" X c #88628B",
".X c #866BAA",
"XX c #A47C87",
"oX c #836CE1",
"OX c #308E83",
"+X c #089B81",
"@X c #609E94",
"#X c #5687D4",
"$X c #978987",
"%X c #899388",
"&X c #95938A",
"*X c #978B95",
"=X c #8C9594",
"-X c #959694",
";X c #8A8A84",
":X c #A68985",
">X c #A99598",
",X c #A99091",
"<X c #8EAA9A",
"1X c #ADA494",
"2X c #97AEA9",
"3X c #B9A9A7",
"4X c #ABB3AF",
"5X c #A09DA5",
"6X c #FF9A87",
"7X c #F89893",
"8X c #C9A59F",
"9X c #FCAB8C",
"0X c #FAA68A",
"qX c #FDAB92",
"wX c #FAA898",
"eX c #FAB198",
"rX c #EEB198",
"tX c #D2ADAF",
"yX c #E8ABAB",
"uX c #F9ACA5",
"iX c #EAB1A5",
"pX c #FCB5A3",
"aX c #F0B1B6",
"sX c #DE9A9F",
"dX c #D4C6B7",
"fX c #F2C8BA",
"gX c #999CDE",
"hX c #AE99CF",
"jX c #B2ACC8",
"kX c #9A98EC",
"lX c #9B9BFE",
"zX c #9799F8",
"xX c #9391EC",
"cX c #A699F8",
"vX c #A19AE7",
"bX c #9DA1E8",
"nX c #9AA1F9",
"mX c #A3A1FE",
"MX c #D2B5D0",
"NX c #E9AEC9",
"BX c #D0B0EB",
"VX c #FDD8D6",
"CX c #F1CCCB",
"ZX c #FDE7DD",
"AX c #FFD9E4",
"SX c #FFE5E5",
"DX c #FFF5EB",
"FX c #FEFCF3",
"GX c #F7FCFE",
"HX c #FDFDFD",
"JX c #FBF7F8",
"KX c #DDD9CA",
/* pixels */
"                                                                                                                        ",
"                                                                                                                        ",
"                                                                                                                        ",
"                                              M.i.t.t.U.U.                                                              ",
"                                        M.I.I.M.t.a.n v.m././.W.W.W.].                                                  ",
"                                      g.r.e.u.s.u.v n.n. Xn kXmXnX{.^.^.#X#Xx.                                          ",
"                                g.g.k.d.0.9.e.v q.n NXiXaX;.n b lXxXzXlX#X]._.J.f.c z                                   ",
"                                  f.g.g.9.9.0.r.v l yX9XeX&.j n kXmXlXnX~.`.[.H.y.y.c                                   ",
"                                      B f.y.i.w.v l aX7XwXuX@. XM zXzXnXzXmX'.'.Y.H.N                                   ",
"                                        H.K.H.i.e.M NXuX7XuXaXNXv.lXkXbXkXxXzX].'.].x.                                  ",
"                                        (.(.Y.p.i.M NXuXuXNXNXBXm.lXkXgXcXcXnXW.~.].J.Q.                                ",
"                                  L.J.K.(.G.T.Y.R.m.NXNXNXW .X.XzXzXnXGXvXcXzX^.^.`.].f.f.                              ",
"                            J.E.).(.(.K.j.R.R.R.[.oX!.oX/./.kXkXlXI.A.z.cXgXnXzX`.'.[.H.H.                              ",
"                            }.G.(.D.(.R.t.R.K.T.[.}.`.'.[.'.zXkXzXx.B.M.cXmXxXnX'.[.[.K.K.                              ",
"                          ).R.(.Y.i.p.y.t.R.(.(.[.[.`.{.`.`.nXzXb.GXGXJXb.m.lXzX].[.[.T.E.9.                            ",
"                      L.).(.h.h.w.r.r.w.t.D.(.(.[.}.{.`.`.`.~.!.GXGXGXGXGXJXm.lX'.[.[.I.M.9.                            ",
"                    J.h.h.i.i.u.w.q.0.w.u.R.S.(.S.R.'.'.{.`.cXkXGXHXGXHXHXHX, C.`.`.!.g g z                             ",
"                    J.h.p.9.w.r.0.e.v e.w.Y.(.(.(.(.'.'.'.`.zXgXGXHXHXHXHXHX& C./.{.C.1 1 z                             ",
"                    N N N N N r.r.v r.c 9.H.(.G.S.T.[.`.{.~.lXvXHXJXHXHXGXHX& b.^.W.v., < OX                            ",
"                                  9.r.r.w.h.j.G.(.T.Y.'.~.^.kXhXHXHXJXHXHXGX& , V B 1 < = OX                            ",
"                                  y.i.u.u.t.t.Y.G.(.(.[.~.C.hXhXJXDXFXHXHXHX+ & V x , * % 2.                            ",
"                                  H.H.R.F.i.s.I.D.D.R.U.v..XNXNXyXDXFXFXHXHX. * jXhX* 5X@XK                             ",
"                                L.(.(.Y.I.t.u.t.I.U.N.V.;.yXuXwXrXiXtXDXHXHXHXHXR :.&X. . @X@X                          ",
"                                K.K.L.H.R.u.w.e.I.z.V.|.@.eX0XqX9XqXiXDXDXJXFXDX&.&.:X. X =X                            ",
"                            J.R.I.w.i.w.w.0.w.r.i.q.l.|.%.9X0XqX9XqXwXuXuXuXiXrX9X9X- # @ o                             ",
"                            R.R.t.8.0.e.q.q.r.9.p.q.M Z e 0XqX0X9X9XuXwXwXwX9XeXX.X.=.8 8                               ",
"                            E.D.t.e.e.8.q.q.0.r.9.r.n j r wX9X9X9XeX6XeXwX0XwXqXO.X.*.9 9                               ",
"                          c.0.s.8.s.v q.v a.v v 9.r.m l r r &.*.9X9XrXrXqXwXwX*.&.&.>                                   ",
"                          h M d.d.d.m m m v a.0.0.a.m n l 2 $ - 6 X.*.*.*.O.q 7 E                                       ",
"                          z x b b b m n C V x n m b v b v 1 $ - q $.*.#.X.*.e >                                         ",
"                          3             Q Q ! MXMXBXC.n n l 0 e w q q w w 6 ~                                           ",
"                                        dX! ! ! j k x Z.l.|.aXwXqX$.o.$.w 7 :.                                          ",
"                                        tX:.;.n.n x x Z.S ;.aXiXwX*.#.#.q 6 =.                                          ",
"                                      uX:.j j n q.e.v..X;.yXDXSXpXwXqX#.X.$.7 =.rXdX                                    ",
"                            8XtXKXtXrX,.l m x x v v k.|.,.uXwXwX0XqXeX#.X.O.7   $.-.dX                                  ",
"                          u u @.@.aXiXtXk v v B v a.m.Z t uXwX0XqX9XrX+.O.O.7       6.fXKX                              ",
"                          U R y A >.>.AXS M x x e.b N.M t aXpX0X9X9X9XO.o.X.9       6.eXfX                              ",
"                          JXFXFXMX3XSXMX  A k g v s.a.m.l.|.wX0XwX*.*.@.t r           7.>.; 8X1XY                       ",
"                      2X4XJXJXHXJXtXVXVX        v 8.8.U.U.l.t / #.#.$.9 l.V.            8XDXDXFX&X                      ",
"                      4X&XHXJXHXJXKXCXKX        x m q.I.D.U.Z t :.@.,.r V.~.          4X5XFXGXFX%X                      ",
"                    4X5X*XHXHXHXJXR R dX      3 < , x e.y.R.M.B.b.b.b.v.a.r.        E 3X$XHXHXFXGXp p                   ",
"                    T ,X*XGXHXHXHX    Y <X        Z.g b i.K.H.J.#X    g b v h       p tX$X-XFXFXFX=X%X                  ",
"                    E $X%XFXFXFXFX    H           Q g q.u.I.E.x.      2 x V z       a $X3X$XGXFXHX;X&X                  ",
"                    G ,X%X5.FXFX<X              o & x N.I.9.            , , h         a Y 1X&X;X&X&X-X                  ",
"                    G d d &X5.4X        2XdXNX>Xo * x }.U.                  , <           F T R $XU y                   ",
"                    G Y p %X,X2X        1XfXMX,X$ & h   B.                  & 2           D Y Y <XY Y                   ",
"                      D H F F D       <XFX&X-X+ 2 l                     T A * 2             H p G                       ",
"                                      4XGX%X=X*X< < A                 *X>X>X+ + 4 D                                     ",
"                                      4XFX-X5X*X+ + y                 ,X>X,X$ + A F                                     ",
"                                  % X :X3X4XjX*XU d A                 f >X$XXXT T 4                                     ",
"                                % > 9 8 $XG A T U d                   y U U *X*XA U                                     ",
"                                # 9 9 <.VXDXJXJXsX8X              . @ r U y U U >X>XaXaX                                ",
"                                - 9 9 7.CXAXSXSX7X7X              + # 9 u y d d XXXXNXAXCX                              ",
"                            O X r :X6.CX| ) ^ ^ ( ^ sX            - ; 6 7 0 > :XsXaX| [ ) ) ) (                         ",
"                            O X $XZXVXq _  ._ 0XqX6X( w 8       . 0 w q q e $X6.[ _  . ._ 6X0X6X) ) `                   ",
"                          OXO . ;XZXVXw ) _ ] 6X0XqX( / q     2.. 7 e w q e ,X:X[ .. ._ _ 6X9X9X_  ._                   ",
"                          1.% % %X> 8 } { ^ ` ' } } { ^ } 8 3.L . 8 9 e 7 9 5.6.6 w ^ { ( ^ ' ` ( ( ] i                 ",
"                          +X1.P o X # - - ; ; ; ; ; ; ; ; @ 3.2.o X @ @ @ X o o @ - ; : : : ; ; : : : -                 ",
"                              2.% % O O + O o O O O O o o % 1.1.% % O O o % % % o o o . . X . . o . X o                 ",
"                              J 4.K P P P P P P P P 3.L 4.J   1.2.3.4.c.K 4.K 4.P P I I I E H H                         "
};
